<svg version="1.1" id="Layer_1" xmlns="http://www.w3.org/2000/svg" xmlns:xlink="http://www.w3.org/1999/xlink" x="0px" y="0px"
	 width="100%" viewBox="0 0 108 114" enable-background="new 0 0 108 114" xml:space="preserve">
<path fill="#CD3A2C" opacity="1.000000" stroke="none" 
	d="
M109.000000,108.000000 
	C109.000000,110.331017 109.000000,112.662033 109.000000,114.994781 
	C73.038055,114.996521 37.076115,114.996521 1.057085,114.996521 
	C1.057085,77.075851 1.057085,39.151600 1.057085,1.113673 
	C36.888157,1.113673 72.776794,1.113673 109.000000,1.113673 
	C109.000000,35.353504 109.000000,69.708092 108.621559,104.666809 
	C100.605637,104.285965 94.557449,100.400085 89.428665,94.888580 
	C85.914757,91.112450 82.384567,87.346230 79.005882,83.450500 
	C69.561981,72.561371 60.193050,61.607235 50.527550,50.368317 
	C67.015129,35.246258 80.000847,16.888802 101.393456,7.953175 
	C97.106659,5.474815 68.482460,5.758675 65.602676,8.336521 
	C66.897232,8.943643 67.966629,9.617908 69.133369,9.963697 
	C75.635086,11.890607 76.969467,14.291353 72.575966,19.104006 
	C61.486843,31.251074 49.807938,42.859840 38.342007,54.661613 
	C38.188354,54.819763 37.729443,54.681339 37.026783,54.681339 
	C36.902370,53.814049 36.654160,52.903725 36.659424,51.994869 
	C36.718243,41.833382 36.793468,31.671858 36.911362,21.510891 
	C36.992634,14.505969 39.222454,11.790504 46.134357,9.967162 
	C47.766212,9.536683 49.349079,8.920502 50.954483,8.389748 
	C50.871868,7.930778 50.789253,7.471807 50.706638,7.012837 
	C37.344776,7.012837 23.982914,7.012837 9.239784,7.012837 
	C13.716842,9.574950 17.650034,10.664629 19.577124,13.249760 
	C21.571060,15.924565 22.364433,20.044174 22.395382,23.543186 
	C22.595730,46.194084 22.646812,68.851112 22.308687,91.499596 
	C22.172972,100.590248 20.302996,102.282494 11.497758,105.105751 
	C10.855000,105.311836 10.227118,105.564316 9.174741,105.947128 
	C14.176568,108.626190 49.396919,108.230286 52.216503,105.634094 
	C50.384411,105.039536 48.918415,104.457161 47.400444,104.089165 
	C39.796032,102.245598 37.262844,99.569145 36.833725,91.794312 
	C36.430347,84.485741 36.407463,77.152832 36.358841,69.829689 
	C36.339642,66.938286 36.703594,64.044342 36.893078,61.151554 
	C37.418774,60.842804 37.944469,60.534058 38.470161,60.225307 
	C41.146259,62.697533 44.069069,64.953697 46.455975,67.679192 
	C57.089527,79.821098 67.642792,92.035690 78.047386,104.373863 
	C80.277847,107.018814 82.499954,108.241714 86.046692,108.103737 
	C93.687569,107.806488 101.347733,108.004601 109.000000,108.000000 
z"/>
<path fill="#FDF8F8" opacity="1.000000" stroke="none" 
	d="
M109.000000,107.625000 
	C101.347733,108.004601 93.687569,107.806488 86.046692,108.103737 
	C82.499954,108.241714 80.277847,107.018814 78.047386,104.373863 
	C67.642792,92.035690 57.089527,79.821098 46.455975,67.679192 
	C44.069069,64.953697 41.146259,62.697533 38.470161,60.225307 
	C37.944469,60.534058 37.418774,60.842804 36.893078,61.151554 
	C36.703594,64.044342 36.339642,66.938286 36.358841,69.829689 
	C36.407463,77.152832 36.430347,84.485741 36.833725,91.794312 
	C37.262844,99.569145 39.796032,102.245598 47.400444,104.089165 
	C48.918415,104.457161 50.384411,105.039536 52.216503,105.634094 
	C49.396919,108.230286 14.176568,108.626190 9.174741,105.947128 
	C10.227118,105.564316 10.855000,105.311836 11.497758,105.105751 
	C20.302996,102.282494 22.172972,100.590248 22.308687,91.499596 
	C22.646812,68.851112 22.595730,46.194084 22.395382,23.543186 
	C22.364433,20.044174 21.571060,15.924565 19.577124,13.249760 
	C17.650034,10.664629 13.716842,9.574950 9.239784,7.012837 
	C23.982914,7.012837 37.344776,7.012837 50.706638,7.012837 
	C50.789253,7.471807 50.871868,7.930778 50.954483,8.389748 
	C49.349079,8.920502 47.766212,9.536683 46.134357,9.967162 
	C39.222454,11.790504 36.992634,14.505969 36.911362,21.510891 
	C36.793468,31.671858 36.718243,41.833382 36.659424,51.994869 
	C36.654160,52.903725 36.902370,53.814049 37.026783,54.681339 
	C37.729443,54.681339 38.188354,54.819763 38.342007,54.661613 
	C49.807938,42.859840 61.486843,31.251074 72.575966,19.104006 
	C76.969467,14.291353 75.635086,11.890607 69.133369,9.963697 
	C67.966629,9.617908 66.897232,8.943643 65.602676,8.336521 
	C68.482460,5.758675 97.106659,5.474815 101.393456,7.953175 
	C80.000847,16.888802 67.015129,35.246258 50.527550,50.368317 
	C60.193050,61.607235 69.561981,72.561371 79.005882,83.450500 
	C82.384567,87.346230 85.914757,91.112450 89.428665,94.888580 
	C94.557449,100.400085 100.605637,104.285965 108.621559,105.135468 
	C109.000000,105.750000 109.000000,106.500000 109.000000,107.625000 
z"/>
</svg>